<svg width="208" height="77" viewBox="0 0 208 77" fill="none" xmlns="http://www.w3.org/2000/svg">
<g clip-path="url(#clip0_31_1134)">
<path d="M22.51 25.1699L0 47.6899V55.3399L22.51 32.8199V25.1699Z" fill="white"/>
<path d="M55.65 51.42L34.53 30.29V37.13L55.65 58.26V51.42Z" fill="white"/>
<path d="M22.51 12.8398L0 35.3498V42.9998L22.51 20.4898V12.8398Z" fill="white"/>
<path d="M55.66 62.9498V69.7398H55.61L34.53 48.6498V41.8198L55.66 62.9498Z" fill="white"/>
<path d="M22.51 8.15V0L0 22.51V30.66L22.51 8.15Z" fill="white"/>
<path d="M55.65 46.7402V40.3302L34.53 19.2002V25.6102L55.65 46.7402Z" fill="white"/>
<path d="M32.15 50.9598H22.51V37.5098L0 60.0198V76.6498H57.83L32.15 50.9598Z" fill="white"/>
<path d="M76.04 48.5299C74.42 46.8699 73.61 44.4499 73.61 41.2699V28.4399H75.98V41.1699C75.98 43.7699 76.57 45.7099 77.74 46.9899C78.91 48.2699 80.61 48.9099 82.83 48.9099C85.05 48.9099 86.77 48.2699 87.95 46.9899C89.12 45.7099 89.71 43.7699 89.71 41.1699V28.4399H92.01V41.2699C92.01 44.4499 91.2 46.8699 89.59 48.5299C87.98 50.1899 85.72 51.0299 82.82 51.0299C79.92 51.0299 77.66 50.1999 76.04 48.5299Z" fill="white"/>
<path d="M117.85 28.4399V50.8299H115.9L101.51 32.6599V50.8299H99.14V28.4399H101.09L115.52 46.6099V28.4399H117.85Z" fill="white"/>
<path d="M125.14 28.4399H127.51V50.8299H125.14V28.4399Z" fill="white"/>
<path d="M149.9 30.4899C151.52 31.8599 152.33 33.7299 152.33 36.1199C152.33 38.5099 151.52 40.3799 149.9 41.7299C148.28 43.0799 146.04 43.7599 143.18 43.7599H137.17V50.8299H134.8V28.4399H143.18C146.04 28.4399 148.28 29.1199 149.9 30.4899ZM148.2 40.2299C149.37 39.2599 149.96 37.8899 149.96 36.1199C149.96 34.3499 149.37 32.9199 148.2 31.9499C147.03 30.9799 145.33 30.4899 143.11 30.4899H137.16V41.6899H143.11C145.33 41.6899 147.02 41.2099 148.2 40.2299Z" fill="white"/>
<path d="M172.73 50.8299L167.61 43.6299C167.03 43.6899 166.44 43.7299 165.82 43.7299H159.81V50.8299H157.44V28.4399H165.82C168.68 28.4399 170.92 29.1199 172.54 30.4899C174.16 31.8599 174.97 33.7299 174.97 36.1199C174.97 37.8699 174.53 39.3499 173.64 40.5499C172.76 41.7599 171.49 42.6199 169.85 43.1599L175.32 50.8399H172.73V50.8299ZM170.85 40.2499C172.02 39.2699 172.61 37.8899 172.61 36.1199C172.61 34.3499 172.02 32.9199 170.85 31.9499C169.68 30.9799 167.98 30.4899 165.76 30.4899H159.81V41.7199H165.76C167.98 41.7199 169.67 41.2299 170.85 40.2499Z" fill="white"/>
<path d="M180.57 28.4399H182.94V50.8299H180.57V28.4399Z" fill="white"/>
<path d="M204.27 50.8302L197.04 40.9802L189.84 50.8302H187.12L195.63 39.3102L187.67 28.4302H190.39L197.14 37.5802L203.86 28.4302H206.42L198.49 39.2402L207.03 50.8202H204.28L204.27 50.8302Z" fill="white"/>
<path d="M77.0599 55.75H79.3599V65.69H77.0599V55.75Z" fill="white"/>
<path d="M94.24 55.75V65.69H92.35L87.39 59.66V65.69H85.12V55.75H87.02L91.96 61.78V55.75H94.23H94.24Z" fill="white"/>
<path d="M109.5 55.75L105.2 65.69H102.93L98.6399 55.75H101.12L104.14 62.85L107.21 55.75H109.5Z" fill="white"/>
<path d="M121.43 63.84V65.69H113.73V55.75H121.24V57.6H116.01V59.76H120.62V61.55H116.01V63.85H121.42L121.43 63.84Z" fill="white"/>
<path d="M127.66 65.5401C126.93 65.3301 126.34 65.0501 125.89 64.7101L126.67 62.9801C127.1 63.2901 127.6 63.5401 128.19 63.7301C128.78 63.9201 129.36 64.0101 129.95 64.0101C130.6 64.0101 131.09 63.9101 131.4 63.7201C131.71 63.5301 131.87 63.2701 131.87 62.9501C131.87 62.7101 131.78 62.5201 131.59 62.3601C131.4 62.2001 131.17 62.0801 130.88 61.9801C130.59 61.8901 130.2 61.7801 129.71 61.6701C128.95 61.4901 128.33 61.3101 127.85 61.1301C127.37 60.9501 126.95 60.6601 126.61 60.2601C126.26 59.8601 126.09 59.3301 126.09 58.6701C126.09 58.0901 126.25 57.5701 126.56 57.1001C126.87 56.6301 127.34 56.2601 127.97 55.9901C128.6 55.7201 129.37 55.5801 130.28 55.5801C130.91 55.5801 131.53 55.6601 132.14 55.8101C132.75 55.9601 133.28 56.1801 133.73 56.4601L133.02 58.2101C132.1 57.6901 131.18 57.4301 130.27 57.4301C129.63 57.4301 129.15 57.5301 128.84 57.7401C128.53 57.9501 128.38 58.2201 128.38 58.5601C128.38 58.9001 128.56 59.1501 128.91 59.3201C129.26 59.4901 129.81 59.6501 130.54 59.8101C131.3 59.9901 131.92 60.1701 132.4 60.3501C132.88 60.5301 133.3 60.8101 133.64 61.2001C133.99 61.5901 134.16 62.1101 134.16 62.7801C134.16 63.3501 134 63.8701 133.68 64.3401C133.36 64.8101 132.89 65.1801 132.25 65.4501C131.61 65.7201 130.84 65.8601 129.94 65.8601C129.15 65.8601 128.39 65.7501 127.66 65.5401Z" fill="white"/>
<path d="M141.06 57.62H137.88V55.75H146.54V57.62H143.36V65.69H141.06V57.62Z" fill="white"/>
<path d="M160.22 65.6802V59.7202L157.28 64.6302H156.24L153.33 59.8402V65.6802H151.17V55.7402H153.07L156.79 61.9202L160.45 55.7402H162.34L162.37 65.6802H160.21H160.22Z" fill="white"/>
<path d="M175.84 63.84V65.69H168.14V55.75H175.65V57.6H170.42V59.76H175.03V61.55H170.42V63.85H175.83L175.84 63.84Z" fill="white"/>
<path d="M190.2 55.75V65.69H188.31L183.35 59.66V65.69H181.08V55.75H182.98L187.92 61.78V55.75H190.19H190.2Z" fill="white"/>
<path d="M198.02 57.62H194.84V55.75H203.5V57.62H200.32V65.69H198.02V57.62Z" fill="white"/>
</g>
<defs>
<clipPath id="clip0_31_1134">
<rect width="207.02" height="76.65" fill="white"/>
</clipPath>
</defs>
</svg>
