<svg width="39" height="51" viewBox="0 0 39 51" fill="none" xmlns="http://www.w3.org/2000/svg">
<path d="M15.0052 16.7472L0 31.7311V36.8211L15.0052 21.8372V16.7472Z" fill="#FAA21B"/>
<path d="M37.0962 34.2129L23.0176 20.1538V24.7049L37.0962 38.764V34.2129Z" fill="#FAA21B"/>
<path d="M15.0052 8.54325L0 23.5205V28.6106L15.0052 13.6333V8.54325Z" fill="#FAA21B"/>
<path d="M37.1029 41.8845V46.4023H37.0696L23.0176 32.3699V27.8254L37.1029 41.8845Z" fill="#FAA21B"/>
<path d="M15.0052 5.4227V0L0 14.9773V20.4L15.0052 5.4227Z" fill="#FAA21B"/>
<path d="M37.0962 31.099V26.834L23.0176 12.7749V17.0399L37.0962 31.099Z" fill="#FAA21B"/>
<path d="M21.4313 33.9068H15.0052V24.9577L0 39.935V51H38.5496L21.4313 33.9068Z" fill="#193548"/>
</svg>
