<svg width="138" height="51" viewBox="0 0 138 51" fill="none" xmlns="http://www.w3.org/2000/svg">
<g clip-path="url(#clip0_7_152)">
<path d="M15.0052 16.7472L0 31.7311V36.8211L15.0052 21.8372V16.7472Z" fill="#FAA21B"/>
<path d="M37.0965 34.2129L23.0178 20.1538V24.7049L37.0965 38.764V34.2129Z" fill="#FAA21B"/>
<path d="M15.0052 8.54325L0 23.5205V28.6106L15.0052 13.6333V8.54325Z" fill="#FAA21B"/>
<path d="M37.1031 41.8845V46.4023H37.0698L23.0178 32.3699V27.8254L37.1031 41.8845Z" fill="#FAA21B"/>
<path d="M15.0052 5.4227V0L0 14.9773V20.4L15.0052 5.4227Z" fill="#FAA21B"/>
<path d="M37.0965 31.099V26.834L23.0178 12.7749V17.0399L37.0965 31.099Z" fill="#FAA21B"/>
<path d="M21.4313 33.9068H15.0052V24.9577L0 39.935V51H38.5496L21.4313 33.9068Z" fill="#193548"/>
<path d="M50.6884 32.29C49.6086 31.1855 49.0686 29.5753 49.0686 27.4595V18.9229H50.6485V27.393C50.6485 29.1229 51.0417 30.4137 51.8217 31.2654C52.6016 32.117 53.7348 32.5429 55.2147 32.5429C56.6945 32.5429 57.8411 32.117 58.6277 31.2654C59.4076 30.4137 59.8009 29.1229 59.8009 27.393V18.9229H61.3341V27.4595C61.3341 29.5753 60.7941 31.1855 59.7209 32.29C58.6477 33.3945 57.1412 33.9534 55.208 33.9534C53.2749 33.9534 51.7683 33.4012 50.6884 32.29Z" fill="#193548"/>
<path d="M78.559 18.9229V33.8204H77.2592L67.6668 21.7307V33.8204H66.0869V18.9229H67.3868L77.0059 31.0125V18.9229H78.559Z" fill="#193548"/>
<path d="M83.4186 18.9229H84.9984V33.8204H83.4186V18.9229Z" fill="#193548"/>
<path d="M99.9237 20.2869C101.004 21.1984 101.544 22.4427 101.544 24.0329C101.544 25.6231 101.004 26.8673 99.9237 27.7656C98.8438 28.6638 97.3506 29.1162 95.4442 29.1162H91.4379V33.8204H89.858V18.9229H95.4442C97.3506 18.9229 98.8438 19.3753 99.9237 20.2869ZM98.7905 26.7675C99.5704 26.1221 99.9637 25.2106 99.9637 24.0329C99.9637 22.8552 99.5704 21.9037 98.7905 21.2583C98.0106 20.6129 96.8774 20.2869 95.3975 20.2869H91.4312V27.7389H95.3975C96.8774 27.7389 98.0039 27.4196 98.7905 26.7675Z" fill="#193548"/>
<path d="M115.142 33.8204L111.729 29.0297C111.343 29.0697 110.949 29.0963 110.536 29.0963H106.53V33.8204H104.95V18.9229H110.536C112.442 18.9229 113.936 19.3753 115.016 20.2869C116.095 21.1984 116.635 22.4427 116.635 24.0329C116.635 25.1973 116.342 26.182 115.749 26.9804C115.162 27.7855 114.316 28.3577 113.222 28.717L116.869 33.827H115.142V33.8204ZM113.889 26.7808C114.669 26.1288 115.062 25.2106 115.062 24.0329C115.062 22.8552 114.669 21.9037 113.889 21.2583C113.109 20.6129 111.976 20.2869 110.496 20.2869H106.53V27.7589H110.496C111.976 27.7589 113.102 27.4329 113.889 26.7808Z" fill="#193548"/>
<path d="M120.368 18.9229H121.948V33.8204H120.368V18.9229Z" fill="#193548"/>
<path d="M136.167 33.8204L131.347 27.2665L126.548 33.8204H124.735L130.407 26.1554L125.101 18.9162H126.914L131.414 25.0043L135.894 18.9162H137.6L132.314 26.1088L138.007 33.8137H136.174L136.167 33.8204Z" fill="#193548"/>
<path d="M51.3684 37.0939H52.9016V43.7076H51.3684V37.0939Z" fill="#FAA21B"/>
<path d="M62.8206 37.0939V43.7076H61.5607L58.2544 39.6955V43.7076H56.7412V37.0939H58.0078L61.3008 41.1061V37.0939H62.814H62.8206Z" fill="#FAA21B"/>
<path d="M72.993 37.0939L70.1266 43.7076H68.6134L65.7537 37.0939H67.4068L69.42 41.818L71.4664 37.0939H72.993Z" fill="#FAA21B"/>
<path d="M80.9456 42.4767V43.7076H75.8127V37.0939H80.8189V38.3249H77.3326V39.762H80.4056V40.953H77.3326V42.4834H80.9389L80.9456 42.4767Z" fill="#FAA21B"/>
<path d="M85.0985 43.6078C84.6118 43.4681 84.2186 43.2818 83.9186 43.0556L84.4385 41.9045C84.7252 42.1108 85.0585 42.2771 85.4518 42.4035C85.8451 42.5299 86.2317 42.5898 86.625 42.5898C87.0583 42.5898 87.3849 42.5233 87.5916 42.3969C87.7982 42.2704 87.9049 42.0975 87.9049 41.8845C87.9049 41.7249 87.8449 41.5984 87.7182 41.492C87.5916 41.3855 87.4382 41.3057 87.2449 41.2391C87.0516 41.1793 86.7916 41.1061 86.465 41.0329C85.9584 40.9131 85.5451 40.7933 85.2251 40.6736C84.9051 40.5538 84.6252 40.3609 84.3985 40.0947C84.1652 39.8286 84.0519 39.4759 84.0519 39.0368C84.0519 38.6509 84.1586 38.3049 84.3652 37.9922C84.5718 37.6794 84.8852 37.4333 85.3051 37.2536C85.7251 37.074 86.2384 36.9808 86.845 36.9808C87.2649 36.9808 87.6782 37.034 88.0848 37.1339C88.4915 37.2337 88.8448 37.38 89.1447 37.5663L88.6715 38.7307C88.0582 38.3847 87.4449 38.2117 86.8383 38.2117C86.4117 38.2117 86.0917 38.2783 85.8851 38.418C85.6784 38.5577 85.5784 38.7374 85.5784 38.9636C85.5784 39.1898 85.6984 39.3562 85.9317 39.4693C86.165 39.5824 86.5317 39.6888 87.0183 39.7953C87.5249 39.9151 87.9382 40.0348 88.2582 40.1546C88.5781 40.2744 88.8581 40.4607 89.0847 40.7202C89.3181 40.9796 89.4314 41.3256 89.4314 41.7714C89.4314 42.1507 89.3247 42.4967 89.1114 42.8094C88.8981 43.1221 88.5848 43.3683 88.1582 43.5479C87.7315 43.7276 87.2183 43.8207 86.6183 43.8207C86.0917 43.8207 85.5851 43.7476 85.0985 43.6078Z" fill="#FAA21B"/>
<path d="M94.0309 38.3382H91.9111V37.0939H97.6839V38.3382H95.5641V43.7076H94.0309V38.3382Z" fill="#FAA21B"/>
<path d="M106.803 43.701V39.7354L104.843 43.0023H104.15L102.21 39.8153V43.701H100.77V37.0873H102.037L104.517 41.1992L106.956 37.0873H108.216L108.236 43.701H106.796H106.803Z" fill="#FAA21B"/>
<path d="M117.215 42.4767V43.7076H112.083V37.0939H117.089V38.3249H113.602V39.762H116.675V40.953H113.602V42.4834H117.209L117.215 42.4767Z" fill="#FAA21B"/>
<path d="M126.788 37.0939V43.7076H125.528L122.222 39.6955V43.7076H120.708V37.0939H121.975L125.268 41.1061V37.0939H126.781H126.788Z" fill="#FAA21B"/>
<path d="M132.001 38.3382H129.881V37.0939H135.654V38.3382H133.534V43.7076H132.001V38.3382Z" fill="#FAA21B"/>
</g>
<defs>
<clipPath id="clip0_7_152">
<rect width="138" height="51" fill="white"/>
</clipPath>
</defs>
</svg>
