<svg width="36" height="36" viewBox="0 0 36 36" fill="none" xmlns="http://www.w3.org/2000/svg">
<path d="M15.5025 10.2572C15.1987 9.4979 14.4633 9 13.6455 9H10.8947C9.8483 9 9 9.8481 9 10.8945C9 19.7892 16.2108 27 25.1055 27C26.1519 27 27 26.1516 27 25.1052L27.0005 22.354C27.0005 21.5361 26.5027 20.8009 25.7434 20.4971L23.1069 19.4429C22.4249 19.1701 21.6483 19.2929 21.0839 19.7632L20.4035 20.3307C19.6089 20.9929 18.4396 20.9402 17.7082 20.2088L15.7922 18.2911C15.0608 17.5596 15.0067 16.3913 15.6689 15.5967L16.2363 14.9163C16.7066 14.352 16.8305 13.5752 16.5577 12.8931L15.5025 10.2572Z" stroke="#9A9EA6" stroke-width="2" stroke-linecap="round" stroke-linejoin="round"/>
<rect x="0.5" y="0.5" width="35" height="35" rx="10.5" stroke="#D7D7D7"/>
</svg>
