<svg width="36" height="36" viewBox="0 0 36 36" fill="none" xmlns="http://www.w3.org/2000/svg">
<path d="M15.3381 21.9905C18.4946 21.8151 21 19.2003 21 16C21 12.6863 18.3137 10 15 10C11.6863 10 9 12.6863 9 16C9 17.1807 9.34094 18.2817 9.92989 19.21L9.50586 20.482L9.50518 20.4839C9.34278 20.9711 9.26154 21.2149 9.31938 21.3771C9.36979 21.5184 9.48169 21.6299 9.62305 21.6803C9.78472 21.7379 10.0267 21.6573 10.5107 21.4959L10.5176 21.4939L11.79 21.0698C12.7183 21.6588 13.8194 21.9998 15.0001 21.9998C15.1135 21.9998 15.2262 21.9967 15.3381 21.9905ZM15.3381 21.9905C15.3382 21.9907 15.3381 21.9902 15.3381 21.9905ZM15.3381 21.9905C16.1591 24.3259 18.3841 26.0002 21.0001 26.0002C22.1808 26.0002 23.2817 25.6588 24.2099 25.0698L25.482 25.4939L25.4845 25.4944C25.9717 25.6567 26.2158 25.7381 26.378 25.6803C26.5194 25.6299 26.6299 25.5184 26.6803 25.3771C26.7382 25.2146 26.6572 24.9706 26.4943 24.4821L26.0703 23.21L26.2123 22.9746C26.7138 22.0979 26.9995 21.0823 26.9995 20C26.9995 16.6863 24.3137 14 21 14L20.7754 14.0041L20.6621 14.0097" stroke="#9A9EA6" stroke-width="2" stroke-linecap="round" stroke-linejoin="round"/>
<rect x="0.5" y="0.5" width="35" height="35" rx="10.5" stroke="#D7D7D7"/>
</svg>
