<svg width="36" height="36" viewBox="0 0 36 36" fill="none" xmlns="http://www.w3.org/2000/svg">
<path d="M10 12L16.1076 16.6123L16.1097 16.614C16.7878 17.1113 17.1271 17.3601 17.4988 17.4562C17.8272 17.5412 18.1725 17.5412 18.501 17.4562C18.8729 17.36 19.2132 17.1105 19.8926 16.6123C19.8926 16.6123 23.8101 13.6059 26 12M9 21.8002V14.2002C9 13.0801 9 12.5196 9.21799 12.0918C9.40973 11.7155 9.71547 11.4097 10.0918 11.218C10.5196 11 11.0801 11 12.2002 11H23.8002C24.9203 11 25.4796 11 25.9074 11.218C26.2837 11.4097 26.5905 11.7155 26.7822 12.0918C27 12.5192 27 13.079 27 14.1969V21.8036C27 22.9215 27 23.4805 26.7822 23.9079C26.5905 24.2842 26.2837 24.5905 25.9074 24.7822C25.48 25 24.921 25 23.8031 25H12.1969C11.079 25 10.5192 25 10.0918 24.7822C9.71547 24.5905 9.40973 24.2842 9.21799 23.9079C9 23.4801 9 22.9203 9 21.8002Z" stroke="#9A9EA6" stroke-width="2" stroke-linecap="round" stroke-linejoin="round"/>
<rect x="0.5" y="0.5" width="35" height="35" rx="10.5" stroke="#D7D7D7"/>
</svg>
